<svg width="126" height="52" viewBox="0 0 126 52" fill="none" xmlns="http://www.w3.org/2000/svg">
<path d="M59.869 22.9662C58.4699 22.9662 57.2841 22.7333 56.3116 22.2613C55.5148 21.8813 54.8184 21.4032 54.2161 20.8393C53.9902 20.6309 53.9902 20.2816 54.2098 20.0609L55.7093 18.5838C55.9226 18.3692 56.274 18.3754 56.4936 18.5776C57.4974 19.497 58.702 19.9567 60.0949 19.9567C60.9482 19.9567 61.5756 19.7851 61.9897 19.448C62.4037 19.1109 62.6045 18.6634 62.6045 18.0996C62.6045 17.6705 62.4853 17.315 62.2406 17.0269C61.9959 16.7389 61.5003 16.5427 60.7599 16.4385L59.1851 16.2424C57.4974 16.034 56.2614 15.5375 55.4772 14.7469C54.6929 13.9623 54.3039 12.9142 54.3039 11.6026C54.3039 10.9039 54.442 10.2664 54.7117 9.68414C54.9878 9.10186 55.3768 8.60539 55.885 8.18861C56.3932 7.77182 57.0143 7.44697 57.7547 7.22019C58.495 6.98728 59.3295 6.87695 60.2768 6.87695C61.4752 6.87695 62.5355 7.06083 63.4452 7.43471C64.1793 7.73504 64.8318 8.1457 65.4028 8.67281C65.6286 8.88121 65.6286 9.23057 65.409 9.4451L63.8907 10.9468C63.6837 11.149 63.3449 11.1674 63.1253 10.9774C62.8241 10.7138 62.4916 10.4871 62.1151 10.2971C61.5756 10.0274 60.8917 9.8864 60.0761 9.8864C59.2981 9.8864 58.7209 10.0212 58.3444 10.2848C57.9617 10.5484 57.7735 10.9161 57.7735 11.3881C57.7735 11.9152 57.9241 12.3013 58.2189 12.5342C58.5138 12.7671 58.9969 12.9388 59.6683 13.043L61.243 13.2881C62.8868 13.5394 64.0977 14.0359 64.8946 14.7714C65.6851 15.5069 66.0804 16.5489 66.0804 17.9034C66.0804 18.6451 65.9423 19.3315 65.6725 19.9567C65.3965 20.5819 65.0012 21.1151 64.4742 21.5626C63.9472 22.01 63.3009 22.3532 62.523 22.5984C61.7512 22.8436 60.8666 22.9662 59.8816 22.9662" fill="#10B0C1"/>
<path d="M67.034 11.0019H69.2926C69.6001 11.0019 69.851 11.247 69.851 11.5474V12.9632H69.964C70.1334 12.3074 70.5161 11.7741 71.1121 11.3574C71.7144 10.9406 72.3983 10.7322 73.1763 10.7322C74.6946 10.7322 75.8428 11.2532 76.6208 12.289C77.3987 13.331 77.7815 14.8449 77.7815 16.8308C77.7815 18.8166 77.3925 20.3367 76.6208 21.3848C75.849 22.4329 74.6946 22.9538 73.1763 22.9538C72.781 22.9538 72.4109 22.8987 72.0595 22.7884C71.7082 22.678 71.3945 22.5187 71.1121 22.3225C70.8298 22.1203 70.5914 21.8874 70.3969 21.6115C70.1961 21.3357 70.0518 21.0415 69.964 20.7351H69.851V26.6069C69.851 26.9072 69.6001 27.1524 69.2926 27.1524H67.034C66.7266 27.1524 66.4756 26.9072 66.4756 26.6069V11.5474C66.4756 11.247 66.7266 11.0019 67.034 11.0019ZM72.0595 20.2876C72.6995 20.2876 73.2265 20.067 73.6468 19.6318C74.0672 19.1966 74.2743 18.6021 74.2743 17.8605V15.8317C74.2743 15.0901 74.0672 14.5016 73.6468 14.0603C73.2265 13.6252 72.6995 13.4045 72.0595 13.4045C71.4196 13.4045 70.8925 13.5577 70.4722 13.8581C70.0518 14.1645 69.8448 14.5813 69.8448 15.1146V18.5653C69.8448 19.0986 70.0518 19.5215 70.4722 19.8218C70.8925 20.1283 71.4196 20.2754 72.0595 20.2754" fill="#10B0C1"/>
<path d="M83.9306 22.9661C83.0209 22.9661 82.2053 22.819 81.49 22.5309C80.7748 22.2428 80.1725 21.8322 79.6768 21.3051C79.1812 20.7779 78.811 20.1344 78.56 19.3805C78.3091 18.6205 78.1836 17.7746 78.1836 16.843C78.1836 15.9113 78.3028 15.09 78.5475 14.3361C78.7922 13.5884 79.1498 12.9448 79.6329 12.4116C80.1097 11.8783 80.6995 11.4677 81.4022 11.1735C82.0986 10.8854 82.9017 10.7383 83.7989 10.7383C84.7839 10.7383 85.6309 10.9038 86.3399 11.2286C87.0488 11.5535 87.6261 11.9948 88.0715 12.5403C88.517 13.0919 88.8432 13.7232 89.0503 14.4465C89.2573 15.1697 89.3577 15.9175 89.3577 16.7081V17.1433C89.3577 17.4437 89.1067 17.6888 88.7993 17.6888H81.672V17.8666C81.672 18.6327 81.8853 19.2395 82.3119 19.6869C82.7386 20.1344 83.4036 20.3612 84.3196 20.3612C85.0161 20.3612 85.587 20.2263 86.0262 19.9505C86.3085 19.7789 86.572 19.5827 86.8293 19.3682C87.0739 19.1598 87.4378 19.1905 87.6386 19.4295L88.6425 20.6492C88.8244 20.8699 88.8056 21.1886 88.5985 21.3786C88.1217 21.8199 87.5445 22.1754 86.8606 22.4512C86.0011 22.7945 85.0223 22.9661 83.9306 22.9661ZM83.8616 13.1655C83.1778 13.1655 82.6445 13.3861 82.2555 13.8213C81.8665 14.2626 81.672 14.8449 81.672 15.5681V15.7459H85.8693V15.5436C85.8693 14.8326 85.7062 14.2565 85.3799 13.8152C85.0537 13.38 84.5455 13.1593 83.8616 13.1593" fill="#10B0C1"/>
<path d="M95.3431 22.9663C94.4459 22.9663 93.6491 22.8192 92.9464 22.5311C92.25 22.2431 91.6603 21.8324 91.1897 21.3053C90.7191 20.7782 90.3615 20.1346 90.1168 19.3807C89.8721 18.6207 89.7529 17.7748 89.7529 16.8432C89.7529 15.9116 89.8721 15.0657 90.1168 14.318C90.3615 13.5702 90.7191 12.9266 91.1897 12.3934C91.6603 11.8601 92.2437 11.4495 92.9464 11.1675C93.6428 10.8856 94.4459 10.7446 95.3431 10.7446C96.5603 10.7446 97.5704 11.0143 98.386 11.5476C99.0448 11.9827 99.5468 12.5527 99.9044 13.2637C100.042 13.5457 99.9169 13.8828 99.6283 14.0054L97.9469 14.7164C97.6771 14.8267 97.3571 14.7286 97.2316 14.4651C97.1124 14.2199 96.9493 13.9992 96.7422 13.8092C96.4097 13.4966 95.9454 13.3434 95.3494 13.3434C94.6655 13.3434 94.151 13.5641 93.7997 13.9992C93.4484 14.4344 93.2727 15.029 93.2727 15.7706V17.9526C93.2727 18.6942 93.4484 19.2826 93.7997 19.7117C94.151 20.1407 94.6655 20.3553 95.3494 20.3553C95.958 20.3553 96.4411 20.1959 96.7987 19.8772C97.0371 19.6626 97.2316 19.4052 97.3885 19.1049C97.5202 18.8413 97.8402 18.7249 98.1163 18.8413L99.7161 19.5217C99.9985 19.6443 100.13 19.963 100.011 20.2327C99.622 21.0908 99.0762 21.7405 98.3798 22.1818C97.5516 22.7027 96.5477 22.9602 95.3619 22.9602" fill="#10B0C1"/>
<path d="M105.237 22.6966C104.064 22.6966 103.179 22.4085 102.583 21.8263C101.981 21.244 101.686 20.3982 101.686 19.2888V14.1096C101.686 13.8092 101.435 13.5641 101.127 13.5641H100.556C100.249 13.5641 99.998 13.3189 99.998 13.0186V11.5476C99.998 11.2472 100.249 11.0021 100.556 11.0021H100.839C101.297 11.0021 101.604 10.8979 101.774 10.6772C101.943 10.4627 102.025 10.1562 102.025 9.7517V8.37875C102.025 8.07842 102.276 7.83325 102.583 7.83325H104.497C104.804 7.83325 105.055 8.07842 105.055 8.37875V10.4504C105.055 10.7508 105.306 10.9959 105.613 10.9959H106.868C107.176 10.9959 107.427 11.2411 107.427 11.5414V13.0124C107.427 13.3128 107.176 13.5579 106.868 13.5579H105.613C105.306 13.5579 105.055 13.8031 105.055 14.1034V19.583C105.055 19.8833 105.306 20.1285 105.613 20.1285H106.686C106.994 20.1285 107.245 20.3736 107.245 20.674V22.145C107.245 22.4453 106.994 22.6905 106.686 22.6905H105.237V22.6966Z" fill="#10B0C1"/>
<path d="M107.627 22.151V11.5475C107.627 11.2471 107.878 11.002 108.186 11.002H110.444C110.752 11.002 111.003 11.2471 111.003 11.5475V13.5395H111.116C111.178 13.2146 111.285 12.8959 111.436 12.5956C111.586 12.2891 111.787 12.0194 112.038 11.7804C112.289 11.5414 112.59 11.3513 112.935 11.2104C113.287 11.0694 113.694 10.9958 114.165 10.9958H114.196C114.504 10.9958 114.755 11.241 114.755 11.5414V13.5211C114.755 13.8214 114.504 14.0666 114.196 14.0666H113.914C112.923 14.0666 112.195 14.1953 111.712 14.4466C111.235 14.6979 110.997 15.1699 110.997 15.8502V22.1449C110.997 22.4452 110.746 22.6904 110.438 22.6904H108.179C107.872 22.6904 107.621 22.4452 107.621 22.1449" fill="#10B0C1"/>
<path d="M123.921 22.6964C123.313 22.6964 122.811 22.5125 122.403 22.1387C122.002 21.7709 121.744 21.2683 121.638 20.6493H121.5C121.318 21.4032 120.916 21.9793 120.289 22.3777C119.668 22.77 118.896 22.9661 117.986 22.9661C116.788 22.9661 115.866 22.6535 115.226 22.0345C114.586 21.4154 114.266 20.588 114.266 19.5705C114.266 18.3385 114.724 17.4253 115.646 16.8308C116.568 16.2301 117.817 15.9298 119.398 15.9298H120.734C121.042 15.9298 121.293 15.6846 121.293 15.3843V15.1943C121.293 14.6304 121.142 14.1829 120.835 13.8458C120.533 13.5087 120.019 13.3432 119.31 13.3432C118.639 13.3432 118.112 13.4842 117.716 13.7661C117.478 13.9378 117.265 14.1155 117.076 14.3116C116.869 14.5262 116.524 14.5384 116.298 14.3423L115.106 13.3064C114.887 13.1164 114.849 12.7855 115.037 12.5587C115.464 12.05 115.972 11.6393 116.556 11.3267C117.29 10.9283 118.294 10.7322 119.555 10.7322C121.255 10.7322 122.535 11.0938 123.382 11.8232C124.235 12.5526 124.662 13.6129 124.662 15.0104V19.5889C124.662 19.8892 124.913 20.1344 125.22 20.1344C125.528 20.1344 125.779 20.3796 125.779 20.6799V22.1509C125.779 22.4513 125.528 22.6964 125.22 22.6964H123.909H123.921ZM119.247 20.6676C119.812 20.6676 120.289 20.5512 120.697 20.3122C121.098 20.0792 121.299 19.6931 121.299 19.1599V18.3324C121.299 18.0321 121.048 17.7869 120.74 17.7869H119.655C118.331 17.7869 117.672 18.2221 117.672 19.0924V19.4234C117.672 19.8525 117.81 20.1651 118.08 20.3612C118.356 20.5635 118.739 20.6615 119.241 20.6615" fill="#10B0C1"/>
<path d="M57.5287 27.2014H55.6716C55.521 27.2014 55.3955 27.324 55.3955 27.4711V41.4457C55.3955 41.5928 55.521 41.7154 55.6716 41.7154H57.5287C57.6793 41.7154 57.8047 41.5928 57.8047 41.4457V27.4711C57.8047 27.324 57.6793 27.2014 57.5287 27.2014Z" fill="#10B0C1"/>
<path d="M66.4944 33.0242H66.8959C67.241 33.0242 67.5296 32.92 67.7492 32.7116C67.9688 32.5032 68.0817 32.1661 68.0817 31.7125C68.0817 31.259 67.9688 30.9219 67.7492 30.7135C67.5296 30.5051 67.241 30.4009 66.8959 30.4009H66.4944C66.143 30.4009 65.8607 30.5051 65.6411 30.7135C65.4215 30.9219 65.3086 31.2528 65.3086 31.7125C65.3086 32.1722 65.4215 32.5032 65.6411 32.7116C65.8607 32.92 66.143 33.0242 66.4944 33.0242Z" fill="#10B0C1"/>
<path d="M69.6692 33.0242H70.0707C70.4158 33.0242 70.7044 32.92 70.924 32.7116C71.1436 32.5032 71.2565 32.1661 71.2565 31.7125C71.2565 31.259 71.1436 30.9219 70.924 30.7135C70.7044 30.5051 70.4158 30.4009 70.0707 30.4009H69.6692C69.3178 30.4009 69.0355 30.5051 68.8159 30.7135C68.5963 30.9219 68.4834 31.2528 68.4834 31.7125C68.4834 32.1722 68.5963 32.5032 68.8159 32.7116C69.0355 32.92 69.3178 33.0242 69.6692 33.0242Z" fill="#10B0C1"/>
<path d="M97.4946 43.303H97.093C96.748 43.303 96.4593 43.4072 96.2398 43.6156C96.0202 43.824 95.9072 44.1611 95.9072 44.6146C95.9072 45.0682 96.0202 45.4053 96.2398 45.6137C96.4593 45.8221 96.7417 45.9263 97.093 45.9263H97.4946C97.8396 45.9263 98.1282 45.8221 98.3478 45.6137C98.5674 45.4053 98.6804 45.0743 98.6804 44.6146C98.6804 44.1549 98.5674 43.824 98.3478 43.6156C98.1282 43.4072 97.8459 43.303 97.4946 43.303Z" fill="#10B0C1"/>
<path d="M94.3266 43.303H93.9251C93.58 43.303 93.2914 43.4072 93.0718 43.6156C92.8522 43.824 92.7393 44.1611 92.7393 44.6146C92.7393 45.0682 92.8522 45.4053 93.0718 45.6137C93.2914 45.8221 93.5737 45.9263 93.9251 45.9263H94.3266C94.6717 45.9263 94.9603 45.8221 95.1799 45.6137C95.3995 45.4053 95.5124 45.0743 95.5124 44.6146C95.5124 44.1549 95.3995 43.824 95.1799 43.6156C94.9603 43.4072 94.6717 43.303 94.3266 43.303Z" fill="#10B0C1"/>
<path d="M102.539 43.303H102.138C101.793 43.303 101.504 43.4072 101.285 43.6156C101.065 43.824 100.952 44.1611 100.952 44.6146C100.952 45.0682 101.065 45.4053 101.285 45.6137C101.504 45.8221 101.787 45.9263 102.138 45.9263H102.539C102.885 45.9263 103.173 45.8221 103.393 45.6137C103.612 45.4053 103.725 45.0743 103.725 44.6146C103.725 44.1549 103.612 43.824 103.393 43.6156C103.173 43.4072 102.891 43.303 102.539 43.303Z" fill="#10B0C1"/>
<path d="M124.379 36.6832C124.354 36.3523 124.304 35.9968 124.241 35.6168L124.122 34.8813C124.097 34.7341 123.959 34.6361 123.808 34.6606L122.171 34.9242C122.02 34.9487 121.92 35.0896 121.945 35.2367L122.077 35.9723C122.146 36.3768 122.196 36.72 122.24 37.002C122.278 37.2839 122.303 37.5168 122.303 37.7007C122.303 38.1481 122.215 38.4668 122.039 38.6691C121.863 38.8714 121.638 38.9756 121.355 38.9756H121.155C120.822 38.9756 120.552 38.853 120.364 38.6017C120.169 38.3504 120.075 37.952 120.075 37.4065V36.4381C120.075 36.291 119.95 36.1684 119.799 36.1684H118.143C117.992 36.1684 117.867 36.291 117.867 36.4381V37.4065C117.867 38.0194 117.741 38.4485 117.484 38.6936C117.233 38.9327 116.819 39.0552 116.242 39.0552C115.815 39.0552 115.395 38.9694 114.987 38.8407C114.818 38.7856 114.655 38.7243 114.491 38.6569C114.347 38.5956 114.284 38.4301 114.353 38.2952L114.811 37.3575C114.874 37.2226 114.818 37.0633 114.686 36.9958L113.193 36.291C113.055 36.2236 112.892 36.2787 112.823 36.4136L112.157 37.762C111.969 38.142 111.718 38.4056 111.405 38.5588C111.091 38.712 110.614 38.7856 109.968 38.7856H105.124C104.196 38.7856 103.443 38.0501 103.443 37.1429V34.8751C103.443 34.728 103.317 34.6054 103.167 34.6054H101.51C101.36 34.6054 101.234 34.728 101.234 34.8751V37.4126C101.234 38.3259 100.701 38.7856 99.6282 38.7856H98.4988C97.5703 38.7856 96.8174 38.0501 96.8174 37.1429V34.8751C96.8174 34.728 96.6919 34.6054 96.5413 34.6054H94.885C94.7344 34.6054 94.6089 34.728 94.6089 34.8751V37.4126C94.6089 38.3259 94.0756 38.7856 93.0028 38.7856H81.6593C81.3769 38.7856 81.1071 38.761 80.8562 38.7059C80.5989 38.6507 80.3292 38.5588 80.0405 38.4239C79.7519 38.2891 79.4382 38.0991 79.0994 37.8539C78.7606 37.6149 78.3716 37.2962 77.945 36.9039L72.8254 32.3315V32.215L81.264 29.6285C81.3769 29.5917 81.4585 29.4875 81.4585 29.3711V27.3484C81.4585 27.1646 81.2765 27.0358 81.1009 27.091L73.1077 29.5611C72.3423 29.8001 71.8215 30.4927 71.8215 31.2773V33.8883C71.8215 34.6851 72.1666 35.4451 72.7752 35.9784L74.1492 37.1858C74.3751 37.3697 74.5382 37.5291 74.6323 37.6639C74.7264 37.7988 74.7703 37.952 74.7703 38.1236C74.7703 38.3749 74.6825 38.5465 74.5005 38.6446C74.3186 38.7427 73.9861 38.7917 73.5092 38.7917H71.0184C70.4287 38.7917 70.0146 38.6998 69.7762 38.5097C69.5378 38.3197 69.4123 37.9336 69.4123 37.3452V34.8874C69.4123 34.7403 69.2868 34.6177 69.1362 34.6177H67.4799C67.3293 34.6177 67.2038 34.7403 67.2038 34.8874V36.0764C67.2038 36.2113 67.1034 36.3216 66.9717 36.34L64.1609 36.7874C64.0103 36.812 63.866 36.7078 63.8472 36.5607L63.7092 35.6658C63.6841 35.5187 63.546 35.4145 63.3954 35.439L61.7516 35.6903C61.6011 35.7148 61.5007 35.8497 61.5258 35.9968L61.9022 38.3381C61.9712 38.7181 62.0214 39.0736 62.0653 39.4046C62.1093 39.7356 62.1281 40.0543 62.1281 40.3546C62.1406 41.4824 61.8646 42.2854 61.2936 42.7696C60.7227 43.2538 59.8318 43.4928 58.6146 43.4928H58.0876C57.937 43.4928 57.8115 43.6154 57.8115 43.7625V46.1652C57.8115 46.3123 57.937 46.4348 58.0876 46.4348H58.6334C59.5557 46.4348 60.3713 46.2939 61.0803 46.0058C61.7893 45.7177 62.3853 45.3009 62.8684 44.7616C63.3515 44.2222 63.7092 43.5664 63.9538 42.8125C64.1923 42.0524 64.3177 41.2066 64.3177 40.2627V39.9869C64.3177 39.9869 64.3177 39.9317 64.3177 39.9072C64.3177 39.7724 64.4118 39.6559 64.5436 39.6314L67.0658 39.2207C67.2038 39.1962 67.3418 39.282 67.3795 39.4169C67.5677 40.1953 67.919 40.7653 68.4335 41.1269C68.9982 41.5253 69.7887 41.7276 70.8051 41.7276H73.0951C73.4967 41.7276 73.8606 41.654 74.1806 41.5131C74.5005 41.3721 74.7766 41.1698 75.0025 40.9124C75.2283 40.655 75.404 40.3608 75.5232 40.0175C75.6424 39.6804 75.7052 39.3127 75.7052 38.9204C75.7052 38.6446 75.6801 38.3872 75.6236 38.1359L75.724 38.0746L76.2636 38.7243C76.7592 39.3249 77.2047 39.8214 77.5999 40.2075C77.9952 40.5937 78.3716 40.9001 78.7355 41.1269C79.0994 41.3537 79.4633 41.5131 79.8272 41.5989C80.1974 41.6847 80.6052 41.7276 81.0632 41.7276H91.8044C92.6765 41.7276 93.3353 41.5131 93.7933 41.0902C94.245 40.6672 94.5713 39.993 94.7595 39.0798H94.8787C95.0669 39.993 95.4371 40.6672 95.9955 41.0902C96.5539 41.5131 97.3632 41.7276 98.4361 41.7276C99.3082 41.7276 99.967 41.5131 100.425 41.0902C100.883 40.6672 101.203 39.993 101.391 39.0798H101.51C101.699 39.993 102.069 40.6672 102.627 41.0902C103.186 41.5131 103.995 41.7276 105.068 41.7276H109.366C110.169 41.7276 110.834 41.6663 111.361 41.5498C111.825 41.4456 112.252 41.2373 112.628 40.9185C112.716 40.845 112.848 40.8266 112.948 40.8818L113.193 41.0227C113.808 41.3782 114.309 41.6234 114.686 41.7582C115.069 41.8931 115.451 41.9666 115.84 41.9666C116.443 41.9666 116.926 41.746 117.296 41.3108C117.666 40.8756 117.898 40.183 118.011 39.2391H118.13C118.306 40.1708 118.632 40.8572 119.115 41.2985C119.599 41.7399 120.314 41.9666 121.261 41.9666C122.347 41.9666 123.143 41.6234 123.658 40.9369C124.172 40.2504 124.43 39.1778 124.43 37.713C124.43 37.3758 124.417 37.0387 124.392 36.7016" fill="#10B0C1"/>
<path d="M25.6187 10.8119C28.6742 10.8119 31.1524 8.39091 31.1524 5.40597C31.1524 2.42104 28.6742 0 25.6187 0C22.5632 0 20.085 2.42104 20.085 5.40597C20.085 8.39091 22.5632 10.8119 25.6187 10.8119Z" fill="#10B0C1"/>
<path d="M10.1601 11.7681C12.7638 11.7681 14.8719 9.70869 14.8719 7.16506C14.8719 4.62143 12.7638 2.56201 10.1601 2.56201C7.55633 2.56201 5.44824 4.62143 5.44824 7.16506C5.44824 9.70869 7.55633 11.7681 10.1601 11.7681Z" fill="#10B0C1"/>
<path d="M39.0453 17.5416C38.3237 16.4506 37.4014 15.4822 36.3411 14.6915C34.8855 13.6067 33.1853 12.865 31.3972 12.4911C29.0507 12.0008 26.4971 12.1234 24.2008 12.7118C23.0966 12.9937 22.03 13.4289 21.0387 13.9744C19.9721 14.5628 18.9682 15.2738 18.1589 16.1871C17.9832 16.3893 17.8201 16.5977 17.6758 16.8245C17.544 17.0268 17.4311 17.2474 17.2742 17.4313H17.268C17.2554 17.3577 17.0296 17.0942 17.0045 17.0635C16.8727 16.9042 16.7284 16.7571 16.5841 16.61C16.0759 16.1196 15.5112 15.6722 14.9528 15.2432C14.4948 14.8938 14.018 14.5751 13.5161 14.2931C13.3153 14.1828 13.1145 14.0786 12.9075 13.9805C12.9012 13.9805 12.8949 13.9805 12.8887 13.9744C12.8636 13.9621 12.8385 13.9499 12.8134 13.9376C12.255 13.6925 11.6715 13.5086 11.0692 13.4105C10.9563 13.3921 10.8433 13.3799 10.7241 13.3676C8.35879 13.1286 5.94955 13.9621 4.0987 15.3719C2.50509 16.5793 1.27537 18.2342 0.616595 20.1036C0.196232 21.2927 0.0205585 22.5431 0.00173627 23.7996C-0.0296341 26.1532 0.365631 28.4884 1.06205 30.744C2.16629 34.2989 4.06733 37.5842 6.45148 40.4649C9.93358 44.6818 14.3882 48.0468 19.1439 50.7865C19.2443 50.8478 19.6458 51.1114 20.0474 51.3565C20.5054 48.6229 20.154 45.7728 18.9682 43.1618C15.505 35.5431 8.58466 35.8067 5.8178 31.2895C4.44378 29.04 6.80283 27.9797 13.0832 31.2711C21.0763 35.4635 24.389 34.4092 28.3103 26.4106C31.3846 20.1281 33.9319 19.6194 34.1828 22.2305C34.6848 27.471 28.9377 31.2466 30.7509 39.3984C31.0333 40.6794 31.4913 41.8991 32.0999 43.0331C34.6597 40.4833 37.163 37.4922 38.97 34.2131C41.7243 29.23 42.3015 22.4573 39.0453 17.5416ZM21.0638 28.7458C18.7988 29.6836 16.1826 28.6478 15.2226 26.4351C14.2627 24.2225 15.323 21.6666 17.5879 20.7288C19.8529 19.791 22.4692 20.8269 23.4291 23.0395C24.389 25.2522 23.3287 27.8081 21.0638 28.7458Z" fill="#10B0C1"/>
</svg>
