<?xml version="1.0" standalone="no"?>
<!DOCTYPE svg PUBLIC "-//W3C//DTD SVG 20010904//EN"
 "http://www.w3.org/TR/2001/REC-SVG-20010904/DTD/svg10.dtd">
<svg version="1.0" xmlns="http://www.w3.org/2000/svg"
 width="891.000000pt" height="891.000000pt" viewBox="0 0 891.000000 891.000000"
 preserveAspectRatio="xMidYMid meet">
<metadata>
Created by potrace 1.14, written by Peter Selinger 2001-2017
</metadata>
<g transform="translate(0.000000,891.000000) scale(0.100000,-0.100000)"
fill="#000000" stroke="none">
<path d="M5257 8904 c-1 -1 -29 -4 -62 -7 -95 -9 -215 -39 -242 -60 -7 -5 -13
-6 -13 -2 0 8 -114 -54 -182 -100 -26 -17 -72 -55 -103 -84 -338 -319 -395
-819 -138 -1209 50 -76 184 -209 258 -257 410 -262 935 -185 1241 183 45 54
137 201 139 222 1 3 11 30 22 62 74 191 68 467 -13 668 -121 301 -422 536
-737 575 -54 7 -165 13 -170 9z"/>
<path d="M2550 8453 c-58 -10 -170 -48 -235 -81 -218 -109 -362 -299 -420
-552 -19 -84 -14 -271 9 -360 35 -131 110 -263 205 -359 149 -151 340 -232
551 -234 169 -2 253 18 392 90 197 104 352 302 404 519 26 105 23 288 -5 388
-81 292 -301 506 -589 575 -72 18 -241 25 -312 14z"/>
<path d="M5749 6796 c-2 -2 -62 -6 -134 -10 -71 -3 -139 -8 -150 -10 -11 -2
-47 -7 -80 -11 -48 -5 -196 -33 -320 -60 -34 -8 -228 -72 -275 -91 -98 -41
-280 -135 -362 -187 -247 -157 -386 -293 -522 -511 l-18 -28 -31 38 c-125 154
-421 396 -619 505 -87 49 -220 104 -297 124 -660 169 -1444 -235 -1790 -921
-41 -82 -102 -234 -115 -289 -5 -16 -10 -37 -12 -45 -79 -303 -89 -679 -29
-1090 23 -159 26 -171 51 -285 14 -60 27 -118 29 -127 18 -85 119 -415 144
-473 5 -11 30 -74 57 -140 50 -127 167 -374 232 -490 73 -132 84 -150 169
-285 78 -125 165 -254 195 -290 7 -8 21 -27 30 -41 45 -71 274 -348 408 -493
81 -89 358 -363 424 -421 32 -27 70 -62 84 -76 15 -14 56 -50 92 -80 36 -30
67 -57 70 -60 15 -17 310 -247 405 -315 61 -43 112 -81 115 -84 13 -15 381
-257 525 -345 88 -53 197 -122 242 -151 79 -52 83 -53 88 -31 34 151 39 494
10 712 -60 449 -258 913 -538 1255 -116 142 -324 339 -443 420 -27 19 -51 37
-54 40 -17 23 -352 230 -530 328 -187 103 -456 275 -535 342 -217 183 -372
399 -380 529 -4 69 12 110 56 144 131 99 441 51 879 -138 46 -20 215 -103 375
-185 159 -82 331 -166 381 -188 204 -90 420 -161 599 -197 91 -18 253 -24 371
-12 120 11 309 81 408 151 300 210 522 522 834 1176 9 19 25 47 35 63 10 15
16 27 13 27 -4 0 5 18 19 40 14 22 25 42 25 44 0 9 98 174 155 262 134 207
296 379 408 434 135 66 233 30 278 -105 18 -54 20 -71 24 -210 8 -232 -58
-493 -210 -830 -246 -549 -332 -776 -375 -994 -5 -25 -12 -57 -15 -71 -46
-204 -52 -548 -15 -808 28 -199 113 -495 189 -657 20 -44 44 -95 52 -113 16
-37 22 -39 47 -14 79 83 188 200 242 261 36 41 70 79 76 85 29 30 139 163 218
261 48 61 93 117 99 125 76 95 256 355 342 495 58 94 215 371 215 380 0 2 19
43 41 92 66 139 167 422 183 507 2 12 9 41 16 66 7 25 14 53 16 63 2 10 5 26
8 35 3 9 7 28 10 42 2 14 9 52 15 85 6 33 13 83 16 110 4 28 8 60 10 73 18
111 24 457 11 602 -13 147 -37 291 -68 410 -11 41 -22 85 -24 96 -24 127 -182
469 -291 631 -361 538 -957 863 -1643 898 -63 3 -124 8 -136 10 -12 3 -23 3
-25 1z m-1371 -1440 c5 -3 19 -7 33 -10 49 -9 146 -50 211 -90 225 -138 363
-387 360 -646 -4 -286 -157 -532 -413 -665 -279 -144 -631 -92 -858 128 -96
93 -156 187 -195 309 -99 302 -2 620 252 829 72 60 238 133 329 145 26 3 50 8
52 10 6 5 219 -4 229 -10z"/>
</g>
</svg>
