<svg width="44" height="44" viewBox="0 0 44 44" fill="none" xmlns="http://www.w3.org/2000/svg">
<path d="M22 0C19.9681 0 18.0201 0.259722 16.1562 0.779167C14.2924 1.29861 12.5354 2.03194 10.8854 2.97917C9.23542 3.92639 7.75347 5.07222 6.43958 6.41667C5.12569 7.76111 3.97986 9.25069 3.00208 10.8854C2.0243 12.5201 1.28333 14.2694 0.779167 16.1333C0.274998 17.9972 0.0152779 19.9528 0 22C0 24.0319 0.25972 25.9799 0.779167 27.8438C1.29861 29.7076 2.03194 31.4646 2.97916 33.1146C3.92639 34.7646 5.07222 36.2465 6.41666 37.5604C7.76111 38.8743 9.25069 40.0201 10.8854 40.9979C12.5201 41.9757 14.2694 42.7167 16.1333 43.2208C17.9972 43.725 19.9528 43.9847 22 44C24.0319 44 25.9799 43.7403 27.8438 43.2208C29.7076 42.7014 31.4646 41.9681 33.1146 41.0208C34.7646 40.0736 36.2465 38.9278 37.5604 37.5833C38.8743 36.2389 40.0201 34.7493 40.9979 33.1146C41.9757 31.4799 42.7167 29.7306 43.2208 27.8667C43.725 26.0028 43.9847 24.0472 44 22C44 19.9681 43.7403 18.0201 43.2208 16.1562C42.7014 14.2924 41.9681 12.5354 41.0208 10.8854C40.0736 9.23542 38.9278 7.75347 37.5833 6.43958C36.2389 5.12569 34.7493 3.97986 33.1146 3.00208C31.4799 2.02431 29.7306 1.28333 27.8667 0.779167C26.0028 0.275 24.0472 0.0152778 22 0ZM22 41.0667C20.2431 41.0667 18.5549 40.8375 16.9354 40.3792C15.316 39.9208 13.8035 39.2792 12.3979 38.4542C10.9924 37.6292 9.70139 36.6361 8.525 35.475C7.34861 34.3139 6.35556 33.0306 5.54583 31.625C4.73611 30.2194 4.09444 28.6993 3.62083 27.0646C3.14722 25.4299 2.91806 23.7417 2.93333 22C2.93333 20.2431 3.1625 18.5549 3.62083 16.9354C4.07917 15.316 4.72083 13.8035 5.54583 12.3979C6.37083 10.9924 7.36389 9.70139 8.525 8.525C9.68611 7.34861 10.9694 6.35556 12.375 5.54583C13.7806 4.73611 15.3007 4.09444 16.9354 3.62083C18.5701 3.14722 20.2583 2.91806 22 2.93333C23.7569 2.93333 25.4451 3.1625 27.0646 3.62083C28.684 4.07917 30.1965 4.72083 31.6021 5.54583C33.0076 6.37083 34.2986 7.36389 35.475 8.525C36.6514 9.68611 37.6444 10.9694 38.4542 12.375C39.2639 13.7806 39.9056 15.3007 40.3792 16.9354C40.8528 18.5701 41.0819 20.2583 41.0667 22C41.0667 23.7569 40.8375 25.4451 40.3792 27.0646C39.9208 28.684 39.2792 30.1965 38.4542 31.6021C37.6292 33.0076 36.6361 34.2986 35.475 35.475C34.3139 36.6514 33.0306 37.6444 31.625 38.4542C30.2194 39.2639 28.6993 39.9056 27.0646 40.3792C25.4299 40.8528 23.7417 41.0819 22 41.0667ZM27.3396 20.5333H11.7333V23.4667H27.3396L20.9688 29.7458L23.0312 31.8542L32.9771 22L23.0312 12.1458L20.9688 14.2542L27.3396 20.5333Z" fill="#010036"/>
</svg>
