<svg width="29" height="31" viewBox="0 0 29 31" fill="none" xmlns="http://www.w3.org/2000/svg">
<path d="M9.14355 16.2857H19.8575M9.14355 9.14331H19.8575" stroke="#010036" stroke-width="3" stroke-linecap="round" stroke-linejoin="round"/>
<path d="M25.2142 2H3.78624C3.55163 1.99989 3.31931 2.04601 3.10254 2.13574C2.88577 2.22547 2.68881 2.35704 2.52292 2.52292C2.35704 2.68881 2.22547 2.88577 2.13574 3.10254C2.04601 3.31931 1.99989 3.55163 2 3.78624V21.6426C2 21.8771 2.04621 22.1094 2.13599 22.326C2.22576 22.5427 2.35735 22.7396 2.52323 22.9053C2.68911 23.0711 2.88603 23.2026 3.10274 23.2923C3.31945 23.382 3.5517 23.4281 3.78624 23.428H9.14323V28.785L18.071 23.428H25.2142C25.6877 23.428 26.1418 23.2399 26.4767 22.905C26.8115 22.5702 26.9996 22.1161 26.9996 21.6426V3.78624C26.9997 3.5517 26.9536 3.31945 26.8639 3.10274C26.7743 2.88603 26.6428 2.68911 26.477 2.52323C26.3112 2.35735 26.1143 2.22576 25.8976 2.13599C25.681 2.04621 25.4487 2 25.2142 2Z" stroke="#10B0C1" stroke-width="3" stroke-linecap="round" stroke-linejoin="round"/>
</svg>
